<svg width="33" height="33" viewBox="0 0 33 33" fill="none" xmlns="http://www.w3.org/2000/svg">
<path d="M28.18 0H4.82C2.15799 0 0 2.15799 0 4.82V28.18C0 30.842 2.15799 33 4.82 33H28.18C30.842 33 33 30.842 33 28.18V4.82C33 2.15799 30.842 0 28.18 0Z" fill="#00243D"/>
<path d="M21.977 23.3898L10.8096 19.8301C10.2485 19.6513 9.64863 19.9612 9.46977 20.5223L9.38691 20.7822C9.20805 21.3433 9.51793 21.9432 10.079 22.1221L21.2464 25.6817C21.8076 25.8606 22.4074 25.5507 22.5863 24.9896L22.6691 24.7297C22.848 24.1685 22.5381 23.5687 21.977 23.3898Z" fill="#4DA4FF"/>
<path d="M21.2446 7.31642L10.0772 10.8761C9.51611 11.055 9.20623 11.6548 9.38509 12.2159L9.46795 12.4759C9.64681 13.037 10.2467 13.3469 10.8078 13.168L21.9752 9.60834C22.5363 9.42948 22.8462 8.82962 22.6673 8.2685L22.5845 8.00856C22.4056 7.44744 21.8057 7.13756 21.2446 7.31642Z" fill="#4DA4FF"/>
<path d="M22.5986 15.2963H10.8776C10.2886 15.2963 9.8112 15.7738 9.8112 16.3627V16.6355C9.8112 17.2245 10.2886 17.7019 10.8776 17.7019H22.5986C23.1875 17.7019 23.6649 17.2245 23.6649 16.6355V16.3627C23.6649 15.7738 23.1875 15.2963 22.5986 15.2963Z" fill="#4DA4FF"/>
</svg>
