<svg width="79" height="33" viewBox="0 0 79 33" fill="none" xmlns="http://www.w3.org/2000/svg">
<path d="M39.8931 11.6634V9.45455H51.4982V11.6634H47.0025V24H44.3889V11.6634H39.8931Z" fill="white"/>
<path d="M55.2766 24.2202C54.5853 24.2202 53.9627 24.0971 53.4087 23.8509C52.8595 23.5999 52.4239 23.2306 52.1019 22.7429C51.7847 22.2552 51.6261 21.6539 51.6261 20.9389C51.6261 20.3234 51.7397 19.8144 51.967 19.4119C52.1942 19.0095 52.5044 18.6875 52.8974 18.446C53.2904 18.2045 53.7331 18.0223 54.2255 17.8991C54.7227 17.7713 55.2364 17.679 55.7667 17.6222C56.4059 17.5559 56.9244 17.4967 57.3221 17.4446C57.7198 17.3878 58.0086 17.3026 58.1886 17.1889C58.3732 17.0705 58.4656 16.8883 58.4656 16.642V16.5994C58.4656 16.0644 58.3069 15.6501 57.9897 15.3565C57.6725 15.063 57.2156 14.9162 56.619 14.9162C55.9892 14.9162 55.4897 15.0535 55.1204 15.3281C54.7558 15.6027 54.5096 15.9271 54.3817 16.3011L51.9812 15.9602C52.1706 15.2973 52.4831 14.7434 52.9187 14.2983C53.3543 13.8485 53.887 13.5123 54.5167 13.2898C55.1464 13.0625 55.8424 12.9489 56.6048 12.9489C57.1303 12.9489 57.6535 13.0104 58.1744 13.1335C58.6952 13.2566 59.171 13.4602 59.6019 13.7443C60.0328 14.0237 60.3784 14.4048 60.6389 14.8878C60.904 15.3707 61.0366 15.9744 61.0366 16.6989V24H58.565V22.5014H58.4798C58.3235 22.8045 58.1033 23.0885 57.8192 23.3537C57.5399 23.6141 57.1871 23.8248 56.761 23.9858C56.3396 24.142 55.8448 24.2202 55.2766 24.2202ZM55.9442 22.331C56.4603 22.331 56.9078 22.2292 57.2866 22.0256C57.6654 21.8172 57.9566 21.5426 58.1602 21.2017C58.3685 20.8608 58.4727 20.4891 58.4727 20.0866V18.8011C58.3922 18.8674 58.2549 18.929 58.0607 18.9858C57.8713 19.0426 57.6583 19.0923 57.4215 19.1349C57.1848 19.1776 56.9504 19.2154 56.7184 19.2486C56.4864 19.2817 56.2852 19.3101 56.1147 19.3338C55.7312 19.3859 55.3879 19.4711 55.0849 19.5895C54.7818 19.7079 54.5427 19.8736 54.3675 20.0866C54.1924 20.295 54.1048 20.5649 54.1048 20.8963C54.1048 21.3698 54.2776 21.7273 54.6232 21.9688C54.9689 22.2102 55.4092 22.331 55.9442 22.331Z" fill="white"/>
<path d="M66.1928 9.45455V24H63.6218V9.45455H66.1928Z" fill="white"/>
<path d="M71.1804 20.5767L71.1733 17.473H71.5852L75.5057 13.0909H78.5099L73.6875 18.4602H73.1548L71.1804 20.5767ZM68.8366 24V9.45455H71.4077V24H68.8366ZM75.6832 24L72.1321 19.0355L73.8651 17.2244L78.7585 24H75.6832Z" fill="white"/>
<path d="M28.18 0H4.82C2.15799 0 0 2.15799 0 4.82V28.18C0 30.842 2.15799 33 4.82 33H28.18C30.842 33 33 30.842 33 28.18V4.82C33 2.15799 30.842 0 28.18 0Z" fill="#00243D"/>
<path d="M21.977 23.3898L10.8096 19.8301C10.2485 19.6513 9.64863 19.9612 9.46977 20.5223L9.38691 20.7822C9.20805 21.3433 9.51793 21.9432 10.079 22.1221L21.2464 25.6817C21.8076 25.8606 22.4074 25.5507 22.5863 24.9896L22.6691 24.7297C22.848 24.1685 22.5381 23.5687 21.977 23.3898Z" fill="#4DA4FF"/>
<path d="M21.2446 7.31642L10.0772 10.8761C9.51611 11.055 9.20623 11.6548 9.38509 12.2159L9.46795 12.4759C9.64681 13.037 10.2467 13.3469 10.8078 13.168L21.9752 9.60834C22.5363 9.42948 22.8462 8.82962 22.6673 8.2685L22.5845 8.00856C22.4056 7.44744 21.8057 7.13756 21.2446 7.31642Z" fill="#4DA4FF"/>
<path d="M22.5986 15.2963H10.8776C10.2886 15.2963 9.8112 15.7738 9.8112 16.3627V16.6355C9.8112 17.2245 10.2886 17.7019 10.8776 17.7019H22.5986C23.1875 17.7019 23.6649 17.2245 23.6649 16.6355V16.3627C23.6649 15.7738 23.1875 15.2963 22.5986 15.2963Z" fill="#4DA4FF"/>
</svg>
